Coordinates

Units are S.I. units (second, meters, Newtons, ...)
If the header above contains a line with 'inDegrees', this indicates whether rotational values are in degrees (yes) or radians (no).

inDegrees=no
nColumns=21
nRows=12
DataType=double
version=3
OpenSimVersion=4.6-2026-03-31-d6972f9e6
endheader
time	/jointset/ground_pelvis/pelvis_tilt/value	/jointset/ground_pelvis/pelvis_list/value	/jointset/ground_pelvis/pelvis_rotation/value	/jointset/ground_pelvis/pelvis_tx/value	/jointset/ground_pelvis/pelvis_ty/value	/jointset/ground_pelvis/pelvis_tz/value	/jointset/hip_r/hip_flexion_r/value	/jointset/hip_r/hip_adduction_r/value	/jointset/hip_r/hip_rotation_r/value	/jointset/walker_knee_r/knee_angle_r/value	/jointset/patellofemoral_r/knee_angle_r_beta/value	/jointset/ankle_r/ankle_angle_r/value	/jointset/subtalar_r/subtalar_angle_r/value	/jointset/hip_l/hip_flexion_l/value	/jointset/hip_l/hip_adduction_l/value	/jointset/hip_l/hip_rotation_l/value	/jointset/walker_knee_l/knee_angle_l/value	/jointset/patellofemoral_l/knee_angle_l_beta/value	/jointset/ankle_l/ankle_angle_l/value	/jointset/subtalar_l/subtalar_angle_l/value
144.996	-0.1328516120952214	0.05608169455076456	0.0756216647468988	1.283938789283625	0.9155808087029662	-0.3623633178200657	0.01647876248636744	-0.1798004399507503	-0.05132862040124386	1.25648394765416	1.25648394777567	-0.3884529705428053	-0.4387671335481147	0.5827967385031079	0.1180583394375207	0.04333908360660275	0.6191628556519709	0.6191628551207116	0.0849650820730484	-0.2332959287601346
145	-0.1332999150620446	0.05885826084888324	0.07779965812891458	1.28306453158221	0.9130804008152887	-0.3626091842323732	0.03710585749338528	-0.1856235273295315	-0.04943750581240977	1.286760933060592	1.286760933135205	-0.3773177279072772	-0.4436081021924794	0.5871393979881404	0.1240530644943282	0.04663024667988554	0.6486908080439238	0.6486908074631038	0.09953170243564108	-0.2449405311444824
145.004	-0.1336404725852414	0.06119423774287447	0.07962638999732272	1.282169770834894	0.9107975494816962	-0.3628319757051934	0.05806737306274149	-0.1905674037544685	-0.04675973718461063	1.315501093754295	1.315501093785422	-0.3655279449906807	-0.4467285080003012	0.5897612467721309	0.1292522525080453	0.04954346052871907	0.6757335600730997	0.6757335594341538	0.1146527535613692	-0.254845301869742
145.008	-0.1338317283478344	0.06304592743140869	0.0810349636863483	1.281262072522662	0.9087507417126676	-0.3630259275656978	0.07928772774915062	-0.1945399994736933	-0.04329308523783365	1.342601399713798	1.342601399709078	-0.3531137855632299	-0.4480924660433505	0.5904715855778753	0.1335543855096247	0.05208853627244826	0.7000300229642632	0.7000300222660039	0.1301867789324843	-0.2630139877129943
145.012	-0.1338427205139206	0.064379490288469	0.08197114699777927	1.280348856899288	0.9069542063003221	-0.3631861882057655	0.1006943624366763	-0.1974680772570589	-0.03906078918216133	1.367970321266666	1.367970321237074	-0.340111895027275	-0.4476856138854984	0.5891254799919576	0.136880916910064	0.05427919981662215	0.7213752838743037	0.7213752831219248	0.1459915166031676	-0.269483168903128
145.016	-0.1336548247622098	0.06517204492808221	0.08239494637253086	1.279437314745176	0.9054176940131523	-0.3633089749698911	0.1222194959072473	-0.1993001377603835	-0.03411078668094612	1.391528701697498	1.391528701656037	-0.3265646426940808	-0.445516415908995	0.5856271342683919	0.139178920926999	0.0561330606902281	0.7396225680465308	0.7396225672502932	0.161923693777527	-0.2743205504861379
145.02	-0.1332629778818092	0.06541244214218937	0.08228163110319027	1.278534340943739	0.9041464315819643	-0.3633916774390058	0.1438016599702711	-0.2000085906210357	-0.02851406692957371	1.413210223730388	1.413210223690296	-0.3125196306590896	-0.4416171876813773	0.5799312781450958	0.1404227689403854	0.05767172674732298	0.7546830256326604	0.7546830248065572	0.1778383406345348	-0.2776226265183712
145.024	-0.1326762729397277	0.06510164670175733	0.081622178071159	1.277646483500878	0.9031412487438266	-0.363432903714785	0.1653868868493246	-0.1995910316914409	-0.02236225048800027	1.432961451687033	1.43296145165966	-0.2980294855762189	-0.436044820894273	0.5720425676631874	0.1406147155191912	0.05892101818529771	0.7665235430180584	0.7665235421786094	0.1935878676273688	-0.2795117281173864
145.028	-0.131917894338946	0.06425268443149733	0.0804231191659438	1.276779904695433	0.9023988623437305	-0.3634324661270572	0.1869294971906469	-0.1980705233078191	-0.01576450462010436	1.450741479232186	1.450741479224922	-0.2831518422696977	-0.4288810918835006	0.5620131636820125	0.139784324859155	0.05991118792131248	0.775162895109261	0.7751628942744689	0.2090211634342312	-0.2801324226515443
145.032	-0.1310244702362387	0.06289013456630888	0.07870578701778747	1.27594034964976	0.9019122830834383	-0.3633913046188332	0.2083925601022232	-0.1954948438395354	-0.008843899727579126	1.466521277812158	1.466521277826878	-0.2679493111894733	-0.4202323195133182	0.5499388411971826	0.1379867137446857	0.06067698818177715	0.7806666547605515	0.7806666539490305	0.2239829728430743	-0.2796471897450353
145.036	-0.1300449101059414	0.06104916521133301	0.07650500251634838	1.275133119456918	0.9016713113041148	-0.3633113533312679	0.229748045168132	-0.1919347266491611	-0.001733375510469176	1.480282815115825	1.48028281514816	-0.2524893332286783	-0.4102282991085937	0.535953963921541	0.1352996682343806	0.06125746308310644	0.7831412546304588	0.7831412538607381	0.2383137372564438	-0.2782314171192062
145.04	-0.1290386857763641	0.05877412468034773	0.07386731210799063	1.274363050902807	0.9016631065476693	-0.3631953650705576	0.2509764921426379	-0.187481136484393	0.005428417087906106	1.492017906925688	1.492017906965324	-0.2368441323677492	-0.3990208325693023	0.5202254595169574	0.1318197970956993	0.0616954860543987	0.7827274666480537	0.7827274659380244	0.2518499393174417	-0.2760680086860321
